<svg
   version="1.0"
   width="24"
   height="24"
   id="svg2"
   xml:space="preserve"
   sodipodi:docname="BNP_Paribas.svg"
   inkscape:version="1.1.2 (0a00cf5339, 2022-02-04)"
   xmlns:inkscape="http://www.inkscape.org/namespaces/inkscape"
   xmlns:sodipodi="http://sodipodi.sourceforge.net/DTD/sodipodi-0.dtd"
   xmlns="http://www.w3.org/2000/svg"
   xmlns:svg="http://www.w3.org/2000/svg"><sodipodi:namedview
     id="namedview128"
     pagecolor="#ffffff"
     bordercolor="#000000"
     borderopacity="0.25"
     inkscape:pageshadow="2"
     inkscape:pageopacity="0.0"
     inkscape:pagecheckerboard="0"
     showgrid="false"
     inkscape:snap-bbox="true"
     inkscape:zoom="22.129314"
     inkscape:cx="20.538368"
     inkscape:cy="20.628746"
     inkscape:window-width="2560"
     inkscape:window-height="1376"
     inkscape:window-x="0"
     inkscape:window-y="27"
     inkscape:window-maximized="1"
     inkscape:current-layer="svg2" /><defs
     id="defs5"><linearGradient
       x1="0"
       y1="0"
       x2="1"
       y2="0"
       id="linearGradient27"
       gradientUnits="userSpaceOnUse"
       gradientTransform="matrix(0,31.891708,31.891708,0,465.64139,47.128067)"
       spreadMethod="pad"><stop
         id="stop29"
         style="stop-color:#f6f7f7;stop-opacity:1"
         offset="0" /><stop
         id="stop31"
         style="stop-color:#d2d7da;stop-opacity:1"
         offset="0.30000299" /><stop
         id="stop33"
         style="stop-color:#d2d7da;stop-opacity:1"
         offset="0.30000299" /><stop
         id="stop35"
         style="stop-color:#f6f7f7;stop-opacity:1"
         offset="1" /></linearGradient><linearGradient
       x1="0"
       y1="0"
       x2="1"
       y2="0"
       id="linearGradient51"
       gradientUnits="userSpaceOnUse"
       gradientTransform="matrix(0,-44.889664,-44.889664,0,64.319626,85.381988)"
       spreadMethod="pad"><stop
         id="stop53"
         style="stop-color:#007348;stop-opacity:1"
         offset="0" /><stop
         id="stop55"
         style="stop-color:#8dc9ab;stop-opacity:1"
         offset="0.60000598" /><stop
         id="stop57"
         style="stop-color:#00925b;stop-opacity:1"
         offset="1" /></linearGradient><linearGradient
       x1="0"
       y1="0"
       x2="1"
       y2="0"
       id="linearGradient73"
       gradientUnits="userSpaceOnUse"
       gradientTransform="matrix(0,-50.443634,-50.443634,0,64.252747,94.89946)"
       spreadMethod="pad"><stop
         id="stop75"
         style="stop-color:#00925b;stop-opacity:1"
         offset="0" /><stop
         id="stop77"
         style="stop-color:#8dc9ab;stop-opacity:1"
         offset="0.30000299" /><stop
         id="stop79"
         style="stop-color:#00925b;stop-opacity:1"
         offset="0.55000299" /><stop
         id="stop81"
         style="stop-color:#007348;stop-opacity:1"
         offset="0.835159" /><stop
         id="stop83"
         style="stop-color:#009c6d;stop-opacity:1"
         offset="1" /></linearGradient><linearGradient
       x1="0"
       y1="0"
       x2="1"
       y2="0"
       id="linearGradient99"
       gradientUnits="userSpaceOnUse"
       gradientTransform="matrix(0,32.643005,32.643005,0,72.332718,47.241592)"
       spreadMethod="pad"><stop
         id="stop101"
         style="stop-color:#00a678;stop-opacity:1"
         offset="0" /><stop
         id="stop103"
         style="stop-color:#00925b;stop-opacity:1"
         offset="1" /></linearGradient><linearGradient
       x1="0"
       y1="0"
       x2="1"
       y2="0"
       id="linearGradient119"
       gradientUnits="userSpaceOnUse"
       gradientTransform="matrix(0,32.652862,32.652862,0,52.079544,47.239822)"
       spreadMethod="pad"><stop
         id="stop121"
         style="stop-color:#00a678;stop-opacity:1"
         offset="0" /><stop
         id="stop123"
         style="stop-color:#00925b;stop-opacity:1"
         offset="1" /></linearGradient><linearGradient
       x1="0"
       y1="0"
       x2="1"
       y2="0"
       id="linearGradient139"
       gradientUnits="userSpaceOnUse"
       gradientTransform="matrix(0,32.631393,32.631393,0,58.388626,47.247116)"
       spreadMethod="pad"><stop
         id="stop141"
         style="stop-color:#00a678;stop-opacity:1"
         offset="0" /><stop
         id="stop143"
         style="stop-color:#00925b;stop-opacity:1"
         offset="1" /></linearGradient><linearGradient
       x1="0"
       y1="0"
       x2="1"
       y2="0"
       id="linearGradient159"
       gradientUnits="userSpaceOnUse"
       gradientTransform="matrix(0,32.642639,32.642639,0,63.843491,47.242539)"
       spreadMethod="pad"><stop
         id="stop161"
         style="stop-color:#00a678;stop-opacity:1"
         offset="0" /><stop
         id="stop163"
         style="stop-color:#00925b;stop-opacity:1"
         offset="1" /></linearGradient><clipPath
       id="clipPath171"><path
         d="M 0,42.52 H 623.622 V 85.04 H 0 Z"
         id="path173" /></clipPath><clipPath
       id="clipPath195"><path
         d="M 87.716,79.02 H 85.582 V 47.128 h 3.436 c 0.173,1.645 0.309,2.682 0.429,3.95 v 0 c 0.21,2.266 0.299,3.211 0.387,5.789 v 0 c 0.144,4.343 0.009,8.832 -0.137,11.087 v 0 c -0.252,3.988 -0.683,7.677 -1.211,11.066 v 0 z"
         id="path197" /></clipPath><clipPath
       id="clipPath251"><path
         d="M 0,42.52 H 623.622 V 85.04 H 0 Z"
         id="path253" /></clipPath><clipPath
       id="clipPath397"><path
         d="M 0,0 H 623.622 V 793.701 H 0 Z"
         id="path399" /></clipPath><clipPath
       id="clipPath409"><path
         d="M 0,335.753 H 155.905 V 491.658 H 0 Z"
         id="path411" /></clipPath><clipPath
       id="clipPath421"><path
         d="M 0,491.598 H 155.905 V 647.8 H 0 Z"
         id="path423" /></clipPath><clipPath
       id="clipPath433"><path
         d="M -0.003,335.855 H 155.903 V 179.948 H -0.003 Z"
         id="path435" /></clipPath><clipPath
       id="clipPath445"><path
         d="M 155.905,491.669 H 311.811 V 647.768 H 155.905 Z"
         id="path447" /></clipPath><clipPath
       id="clipPath457"><path
         d="M 155.905,335.753 H 311.811 V 491.658 H 155.905 Z"
         id="path459" /></clipPath><clipPath
       id="clipPath469"><path
         d="M 155.905,179.916 H 311.811 V 335.821 H 155.905 Z"
         id="path471" /></clipPath><clipPath
       id="clipPath481"><path
         d="M 311.811,335.753 H 467.716 V 491.658 H 311.811 Z"
         id="path483" /></clipPath><clipPath
       id="clipPath493"><path
         d="M 311.811,491.895 H 467.716 V 647.8 H 311.811 Z"
         id="path495" /></clipPath><clipPath
       id="clipPath505"><path
         d="M 311.811,179.949 H 467.716 V 335.855 H 311.811 Z"
         id="path507" /></clipPath><clipPath
       id="clipPath517"><path
         d="M 467.716,491.862 H 623.621 V 647.768 H 467.716 Z"
         id="path519" /></clipPath><clipPath
       id="clipPath529"><path
         d="M 467.716,335.753 H 623.621 V 491.658 H 467.716 Z"
         id="path531" /></clipPath><clipPath
       id="clipPath541"><path
         d="M 0,335.753 H 155.905 V 491.658 H 0 Z"
         id="path543" /></clipPath><clipPath
       id="clipPath553"><path
         d="M 467.716,179.916 H 623.621 V 335.821 H 467.716 Z"
         id="path555" /></clipPath></defs><g
     id="g232"
     transform="matrix(0.45150974,0,0,0.45914341,-0.50674337,-0.41225109)"><g
       transform="matrix(1.25,0,0,-1.25,-52.700169,106.31912)"
       id="g39"><g
         id="g41"><g
           id="g47"><g
             id="g49"><path
               d="M 43.058,42.52 H 85.582 V 84.337 H 43.058 Z"
               id="path59"
               style="fill:url(#linearGradient51);stroke:none" /></g></g></g></g><g
       transform="matrix(1.25,0,0,-1.25,-52.700169,106.31912)"
       id="g61"><g
         id="g63"><g
           id="g69"><g
             id="g71"><path
               d="m 46.38,83.588 c -0.825,0 -1.364,-0.696 -1.492,-1.672 v 0 c 0,0 -1.062,-5.582 -1.062,-17.435 v 0 c 0,-11.859 1.062,-19.618 1.062,-19.618 v 0 c 0.098,-0.938 0.667,-1.671 1.492,-1.671 v 0 h 36.807 c 0.822,0 1.476,0.652 1.49,1.671 v 0 c 0,0 -0.409,9.088 -0.409,17.964 v 0 c 0,8.877 0.409,19.089 0.409,19.089 v 0 c 0.02,0.908 -0.668,1.672 -1.49,1.672 v 0 z"
               id="path85"
               style="fill:url(#linearGradient73);stroke:none" /></g></g></g></g><g
       transform="matrix(1.25,0,0,-1.25,-52.700169,106.31912)"
       id="g87"><g
         id="g89"><g
           id="g95"><g
             id="g97"><path
               d="m 67.051,79.322 c 1.161,-0.487 5.827,-3.01 6.399,-3.816 v 0 c -2.348,-0.31 -6.953,-1.509 -9.433,-2.716 v 0 l -0.145,-0.292 c 2.735,0.602 6.558,0.917 9.194,1.06 v 0 C 72.082,72.114 71.43,71.426 69.933,69.792 v 0 l -0.139,-0.317 c 2.853,1.714 3.656,1.837 6.286,3.377 v 0 c 0.993,-1.469 1.232,-4.854 1.27,-7.537 v 0 c 0.856,1.702 1.895,8.114 1.463,9.273 v 0 c 1.744,1.197 1.98,2.161 1.98,2.161 v 0 C 79.194,76.611 78.312,76.584 77.45,76.312 v 0 c -2.043,1.253 -6.728,2.906 -10.264,3.306 v 0 z"
               id="path105"
               style="fill:url(#linearGradient99);stroke:none" /></g></g></g></g><g
       transform="matrix(1.25,0,0,-1.25,-52.700169,106.31912)"
       id="g107"><g
         id="g109"><g
           id="g115"><g
             id="g117"><path
               d="M 49.631,59.396 C 49.4,57.26 49.307,55.732 49.613,54.023 v 0 c -0.865,-0.239 -1.623,-0.273 -2.32,-0.57 v 0 L 47.16,53.16 c 1.109,-0.684 2.012,-1.208 3.266,-1.793 v 0 c 0.671,-1.441 1.364,-2.413 2.488,-3.523 v 0 l 0.137,0.297 c -0.202,0.819 -0.464,1.496 -0.365,2.391 v 0 c 1.394,-0.406 2.59,-0.621 4.179,-0.669 v 0 l 0.134,0.297 c -1.397,0.542 -2.793,0.969 -3.923,2.035 v 0 c 0.355,0.988 0.762,1.763 1.426,2.743 v 0 l 0.14,0.3 c -1.2,-0.181 -2.288,-0.62 -3.326,-0.822 v 0 c -0.818,1.438 -1.136,3.405 -1.548,5.279 v 0 z"
               id="path125"
               style="fill:url(#linearGradient119);stroke:none" /></g></g></g></g><g
       transform="matrix(1.25,0,0,-1.25,-52.700169,106.31912)"
       id="g127"><g
         id="g129"><g
           id="g135"><g
             id="g137"><path
               d="m 56.751,69.145 c 0,0 -0.898,0.086 -2.384,0.041 v 0 c -1.256,-0.058 -3.129,-0.17 -4.04,-0.438 v 0 l -0.133,-0.292 c 1.448,-0.062 3.432,-0.451 4.191,-1.213 v 0 c 0,0 -2.198,-1.983 -4.377,-6.323 v 0 c 0,0 3.95,3.706 5.662,4.625 v 0 c 0,0 0.896,-2.984 1.518,-4.478 v 0 l 0.137,0.298 c 0.172,0.96 0.601,3.564 1.329,5.157 v 0 c 0,0 0.258,0.157 1.521,0.28 v 0 c 1.266,0.113 3.056,0.18 6.455,-0.417 v 0 l 0.138,0.292 c -0.776,0.458 -3.869,1.784 -7.143,2.225 v 0 h 0.107 c 0.449,1.322 1.011,2.319 1.011,2.319 v 0 c -0.694,-0.098 -2.67,-1.022 -3.992,-2.076"
               id="path145"
               style="fill:url(#linearGradient139);stroke:none" /></g></g></g></g><g
       transform="matrix(1.25,0,0,-1.25,-52.700169,106.31912)"
       id="g147"><g
         id="g149"><g
           id="g155"><g
             id="g157"><path
               d="m 65.025,50.836 c -0.049,0.579 -0.086,1.072 -0.115,1.724 v 0 c -0.687,-0.932 -1.274,-1.665 -2.032,-2.516 v 0 C 62.077,49.821 61.161,49.83 60.326,49.839 v 0 c -0.33,0.004 -0.649,0.007 -0.942,-0.002 v 0 L 59.249,49.54 c 0.777,-0.4 1.54,-0.646 2.354,-0.813 v 0 c -0.66,-0.601 -1.542,-1.058 -2.162,-1.477 v 0 l -0.136,-0.292 c 1.328,0.314 3.077,0.878 4.38,1.647 v 0 c 0.678,-0.03 1.311,0.015 1.776,0.107 v 0 c 0,0 0.139,0.303 0.139,0.296 v 0 c -0.085,0.3 -0.352,0.483 -0.43,0.903 v 0 c 1.221,0.948 2.106,1.812 3.127,2.839 v 0 l 0.142,0.298 C 67.43,52.352 66.205,51.395 65.025,50.836"
               id="path165"
               style="fill:url(#linearGradient159);stroke:none" /></g></g></g></g><g
       transform="matrix(1.25,0,0,-1.25,-52.700169,106.31912)"
       id="g167"><g
         clip-path="url(#clipPath171)"
         id="g169"><g
           transform="translate(76.215,73.152)"
           id="g175"><path
             d="m 0,0 c -2.624,-1.543 -3.428,-1.673 -6.282,-3.381 1.662,1.803 2.24,2.571 3.268,4.08 -2.631,-0.14 -6.454,-0.456 -9.184,-1.061 2.376,1.269 7.087,2.68 9.574,3.016 C -3.201,3.45 -7.868,5.978 -9.029,6.465 -5.334,6.178 -0.818,4.797 1.372,3.458 2.233,3.727 3.129,3.74 4.732,3.883 4.324,3.182 4.306,2.776 2.733,1.733 3.169,0.568 2.128,-5.841 1.268,-7.538 1.237,-4.857 1.003,-1.471 0,0"
             id="path177"
             style="fill:#ffffff;fill-opacity:1;fill-rule:nonzero;stroke:none" /></g><g
           transform="translate(56.9987,50.1597)"
           id="g179"><path
             d="m 0,0 c -1.508,0.559 -2.594,1.21 -3.79,2.328 0.358,0.988 0.767,1.76 1.433,2.75 C -3.583,4.895 -4.487,4.757 -5.543,4.557 -6.403,6.061 -6.793,7.514 -7.231,9.535 -7.465,7.393 -7.554,5.863 -7.252,4.158 -8.221,3.889 -8.908,3.653 -9.706,3.294 -8.588,2.61 -7.685,2.083 -6.437,1.501 c 0.671,-1.439 1.364,-2.411 2.49,-3.52 -0.264,0.945 -0.334,1.696 -0.226,2.687 C -2.778,0.262 -1.584,0.049 0,0"
             id="path181"
             style="fill:#ffffff;fill-opacity:1;fill-rule:nonzero;stroke:none" /></g><g
           transform="translate(60.9249,71.4755)"
           id="g183"><path
             d="M 0,0 V 0 C -0.47,-0.61 -1.015,-1.747 -1.162,-2.275 2.725,-2.802 5.844,-4.798 5.844,-4.798 2.445,-4.195 0.654,-4.27 -0.614,-4.384 -1.874,-4.503 -2.133,-4.651 -2.133,-4.651 -3.05,-6.66 -3.6,-10.11 -3.6,-10.11 c -0.618,1.491 -1.512,4.477 -1.512,4.477 -1.715,-0.917 -5.659,-4.628 -5.659,-4.628 2.168,4.344 4.369,6.32 4.369,6.32 -0.757,0.767 -2.743,1.15 -4.196,1.214 0.754,0.308 2.689,0.668 4.175,0.736 1.488,0.043 2.388,-0.042 2.388,-0.042 C -2.708,-0.985 -0.694,-0.103 0,0"
             id="path185"
             style="fill:#ffffff;fill-opacity:1;fill-rule:nonzero;stroke:none" /></g><g
           transform="translate(65.0479,52.8526)"
           id="g187"><path
             d="m 0,0 c -0.686,-0.931 -1.276,-1.662 -2.037,-2.513 -1.308,-0.367 -2.352,-0.503 -3.627,-0.503 0.783,-0.404 1.541,-0.646 2.358,-0.817 -0.817,-0.739 -1.507,-1.265 -2.3,-1.77 1.329,0.315 3.076,0.879 4.377,1.648 0.68,-0.026 1.315,0.018 1.781,0.11 -0.122,0.394 -0.196,0.688 -0.295,1.201 1.225,0.948 2.114,1.807 3.134,2.839 C 2.306,-0.562 1.37,-1.127 0.114,-1.72 0.06,-1.142 0.029,-0.652 0,0"
             id="path189"
             style="fill:#ffffff;fill-opacity:1;fill-rule:nonzero;stroke:none" /></g></g></g></g></svg>
